<svg width="737" height="399" fill="none" xmlns="http://www.w3.org/2000/svg"><g clip-path="url(#a)" fill="#23262F"><path d="M483.774 22.543c2.059 2.206 3.393 4.752 5.567 6.774.575-.237 1.136-.366 1.58-.665 1.895-1.27 3.611-2.736 4.993-4.582 1.607-2.152 3.727-3.543 6.264-4.48 3.304-1.222 6.545-2.613 9.78-4.025 1.286-.564 2.579-.829 3.96-.896 3.974-.19 7.954-.415 12.153-.639.67-.427 1.532-.97 2.585-1.635 3.447.502 7.017 1.208 10.621 1.507 4.076.339 7.66 2.009 11.463 3.557.273 1.154.547 2.335.861 3.665 6.286 1.195 12.653 1.134 19.088 1.751 1.19-.76 2.421-1.54 3.748-2.389 3.864.76 7.756 1.52 11.647 2.288.65.91 1.238 1.73 1.901 2.66 2.168 1.168 4.74 1.012 7.086 1.623 1.374-.51 2.674-.93 3.918-1.473 1.437-.618 2.832-.713 4.309-.143.841.326 1.744.51 2.811.808 2.147-1.256 4.391-2.573 6.736-3.95 5.089.909 10.252 1.656 15.176 2.81.602.645 1.067 1.133 1.443 1.534 4.439-.163 8.754-.414 13.077-.441 1.682-.007 3.371.461 5.047.767 2.113.387 4.261.678 6.415 1.466.219.821.445 1.656.684 2.539 4.001.672 7.967.848 11.941.835.766 0 1.552-.292 2.284-.564 1.067-.393 2.093-.896 3.16-1.357 2.038.176 4.076.346 6.107.522 1.929.163 3.857.496 5.779.448 4.316-.108 8.296 1.29 12.317 2.498 8.276 2.492 16.544 5.017 24.635 8.058.629.237 1.224.55 1.764.8.11.673-.184.971-.615 1.175-1.744.835-3.481 1.663-5.136 2.457-2.62-.36-5.096-.72-7.578-1.024-.26-.035-.554.23-.992.427.711 1.548 2.237 1.975 3.345 2.858 1.142.91 2.646 1.324 3.522 2.423.15.68-.185 1.005-.602 1.188-2.907 1.29-5.834 2.546-8.747 3.822-1.177.516-2.408.658-3.673.685-2.387.041-4.733.421-6.88.822-.253.23-.397.299-.41.387-.13.876-.24 1.758-.336 2.525 2.681 4.399 6.45 7.867 8.392 12.477-.992 4.188-2.312 8.132-3.727 12.266-.52-.231-.985-.32-1.259-.59a5835.296 5835.296 0 0 1-17.255-16.95c-.157-.15-.225-.388-.444-.775.54-3.319 2.352-6.4 3.221-9.89-.185-.903-.486-1.853-1.682-2.362-.835.434-1.738.903-2.647 1.378-2.243-.061-4.172-2.003-6.696-1.046-1.224 1.69-.478 3.897-1.183 5.784-1.969 1.215-4.308.428-6.346 1.378-1.471-.686-2.9-1.35-4.323-2.016-4.083.06-10.443 1.683-13.493 3.475-.363 2.003-1.19 3.992-1.177 6.259 1.69.801 3.502.95 5.26 1.324 1.662.346 3.31.753 5.02 1.154 2.92 4.25 5.539 8.614 8.35 12.945.055 2.6.089 5.2.164 7.793.082 2.708-.034 5.416.397 8.118.26 1.616-.151 3.102-1.306 4.406-1.348 1.513-2.551 3.156-3.7 4.588-1.498.353-2.285-.862-3.406-.909-1.573 2.023-1.915 3.679-1.505 7.46 2.722 1.249 5.232 2.953 7.277 5.641.369 2.315 1.04 4.826.609 7.406-2.079 1.547-3.714 2.314-6.156 2.891-1.101-1.133-1.771-2.579-2.468-3.977a14.472 14.472 0 0 0-3.256-4.304c-1.757-1.609-3.508-3.245-5.122-4.989-2.722-2.96-6.155-4.107-10.067-4.297-1.218.726-2.141 1.683-2.852 2.742-.233 1.303 0 2.342.902 3.211 1.956.726 3.776-.787 5.855-.319 1.361 1.5 2.982 2.932 2.694 5.24-.93 1.066-2.421 1.168-3.036 2.593 2.298 2.614 5.061 4.813 7.714 7.691.937 3.333 1.977 7.019 3.003 10.665-1.04 4.134-2.066 8.186-3.14 12.449-1.49 1.161-3.091 2.423-4.705 3.659-1.443 1.099-2.954 2.124-4.363 3.272-1.436 1.174-3.037 1.934-4.788 2.525-1.265.428-2.728.489-3.857 1.846-.171.72-.39 1.684-.636 2.722-1.716.394-3.214-.04-4.828-.638-.479-.787-.992-1.643-1.519-2.518-3.118-.503-4.452 1.812-6.326 3.536.691 2.098 1.354 4.128 2.025 6.178 2.373 2.593 4.753 5.179 7.263 7.921l2.229 8.54c-1.47 2.315-9.383 11.92-11.072 13.461-.677-.027-.903-.577-1.176-1.046-.575-.977-1.184-1.934-1.683-2.946-1.812-3.658-4.862-6.211-7.865-8.817-.321-.279-.779-.394-1.053-.53-.848.224-.958.787-1.026 1.351-.308 2.708-.137 5.417.021 8.064 2.988 4.114 6.558 7.603 10.06 11.255 0 1.161.034 2.281-.007 3.401a7.148 7.148 0 0 0 .93 3.896c.882 1.575 1.648 3.218 2.537 4.969-1.545.788-3.07.964-4.842.883-2.256-1.697-4.178-3.944-6.415-5.967-.636-2.016-1.292-4.053-1.935-6.096a14.604 14.604 0 0 0-2.319-4.487c-1.627-2.165-3.522-4.161-4.821-6.965 0-2.301-.055-4.894.02-7.494.048-1.615-.205-3.136-.848-4.622-.984-2.288-1.908-4.603-2.886-6.89-.219-.503-.574-.951-.95-1.562-1.238.421-2.394.822-3.728 1.277-1.552-.374-2.893-1.446-4.418-2.179-.574-1.263-.273-2.512-.232-3.734.041-1.242.184-2.478.301-3.971-.664-1.88-2.503-3.163-3.864-4.799-1.375-1.65-2.791-3.258-4.254-4.962-3.345.135-6.19 1.663-9.192 2.416-1.033 1.65-2.045 3.15-2.941 4.725-1.491 2.606-3.563 4.65-5.916 6.489-2.503 1.962-4.924 4.019-7.044 6.707-.219 3.801.137 7.752 0 12.008-1.675 2.892-3.755 5.852-5.772 8.974-1.245.401-2.462 1.045-4.042.692-.267-.4-.629-.841-.869-1.33-1.976-4.073-4.178-8.037-5.758-12.293-1.375-3.713-2.825-7.393-4.295-11.072-.684-1.704-.978-3.462-1.108-5.281-.171-2.362-.472-4.718-.739-7.073-.02-.204-.212-.387-.341-.611-1.293-.523-2.298.876-4.008.448-.171-.143-.739-.509-1.19-.984-1.108-1.141-2.202-2.295-3.235-3.503-3.043-3.577-6.955-6.123-10.553-9.055-2.469-.19-4.842-.394-7.229-.55-2.496-.163-5.006-.197-7.502-.441-2.366-.225-4.719-.231-7.01-.292-.602 1.14-.458 1.982.082 3.027 1.333.428 2.824.91 4.473 1.446.574 2.613.937 5.261.943 8.03-1.463 2.899-2.94 5.831-4.418 8.75-5.69 3.856-11.4 7.555-17.583 10.495a84.356 84.356 0 0 0-3.057 1.52c-4.931 2.593-6.483 3.069-12.639 3.815-.861-.835-.882-2.023-1.108-3.095-.554-2.654-1.08-5.315-1.49-7.99-.24-1.527-.821-2.763-1.943-3.842-2.127-2.05-4.165-4.188-6.264-6.265a15.965 15.965 0 0 1-2.503-3.191c-3.529-5.939-7.106-11.845-10.683-17.751-.342-.563-.807-1.045-1.347-1.724-.527.448-.924.781-1.389 1.174.205.611.335 1.154.568 1.65.581 1.229 1.176 2.45 1.833 3.638 2.715 4.861 4.815 9.979 6.627 15.233.362 1.052.773 2.193 1.498 3 2.257 2.519 3.508 5.512 4.623 8.608.15.421.301.848.403 1.14.924 1.297 2.25 1.792 3.475 2.335 2.222.991 3.652 2.6 4.507 4.82.69 1.792 1.449 3.557 2.202 5.322.123.292.39.529.602.814 1.839-.068 3.658-.02 5.45-.237 1.908-.231 3.782-.733 5.677-1.093 2.106-.401 4.137-1.256 6.483-1.073.479.564.992 1.154 1.484 1.752.431.522.835 1.072 1.354 1.744-.082.686-.047 1.487-.28 2.213a130.187 130.187 0 0 1-2.318 6.727 13.05 13.05 0 0 1-1.402 2.702 1474.937 1474.937 0 0 1-10.751 15.701c-.705 1.011-1.58 1.928-2.497 2.763-2.605 2.362-5.314 4.615-7.906 6.991-.643.584-1.149 1.426-1.456 2.24a194.22 194.22 0 0 0-3.256 9.28c-.335 1.052-.438 2.219-.438 3.34 0 4.072.028 8.145.192 12.211.068 1.677.444 3.347.807 4.996.513 2.315 1.142 4.603 1.778 7.135-1.457 3.014-3.426 5.919-5.334 8.845-.472.726-1.3 1.256-2.045 1.765-2.066 1.412-4.172 2.756-6.244 4.154-.65.441-1.259.95-2.011 1.521-.274 4.364.096 8.77-.274 13.169-1.791 2.47-4.972 3.224-6.88 5.579-.82 3.252-1.655 6.531-2.428 9.592-2.585 3.34-5.019 6.476-7.502 9.687-3.324 1.337-6.689 2.708-10.067 4.039-.623.244-1.313.4-1.983.448-4.2.292-8.406.55-12.612.794-.786.047-1.573 0-2.51 0-.294-.665-.656-1.236-.8-1.853-.561-2.417-1.053-4.854-1.566-7.25-1.901-2.878-3.666-5.79-5.69-8.519-1.416-1.914-2.052-3.998-2.284-6.272-.308-3.035-.609-6.069-.835-9.11a23.476 23.476 0 0 0-1.703-7.223c-1.634-3.971-3.18-7.982-4.76-11.981-.164-.414-.294-.848-.519-1.507 1.914-4.67 4.575-9.17 6.572-14.248-.171-.794-.308-1.799-.595-2.763-1.409-4.765-2.92-9.51-4.254-14.296-.41-1.459-1.04-2.728-1.888-3.943-2.462-3.53-4.937-7.06-7.4-10.59-.321-.462-.636-.937-.977-1.446.697-4.018 2.468-7.732 3.303-11.58-.855-1.847-.869-1.84-2.524-2.879-2.065-.135-4.117 1.08-6.483.564-1.142-.693-1.97-1.962-3.071-2.919-.759-.665-1.559-1.31-2.435-1.806-1.361-.767-2.79-.801-4.274-.183-2.408 1.011-4.849 1.962-7.277 2.926-1.053.421-2.12.814-3.235 1.235-1.525-.421-3.091-.74-4.575-1.283-1.895-.692-3.769-.692-5.711-.353-1.669.292-3.365.435-4.842.618-4.185-1.921-8.104-3.72-12.112-5.553-1.402-2.443-2.927-4.833-4.172-7.365-1.47-2.993-3.542-5.512-5.731-7.969-.376-.421-.739-.855-1.299-1.5-.424-2.559-.924-5.336-1.327-8.119-.096-.645.061-1.351.185-2.009.403-2.105.711-4.243 1.299-6.3.711-2.477.472-4.928.205-7.399-.143-1.344-.314-2.681-.479-4.032 1.785-3.971 3.509-7.908 5.328-11.798.417-.896 1.06-1.737 1.751-2.464 3.508-3.706 7.065-7.372 10.6-11.051.233-.244.438-.516.794-.93.328-2.057.691-4.276 1.046-6.51 2.209-2.206 5.047-3.516 7.509-5.518.821-1.67 1.088-3.89 3.557-4.752 1.162.448 2.455.869 3.679 1.432 1.539.713 2.975.747 4.61.177 3.645-1.276 7.379-2.288 11.024-3.544 2.114-.733 4.247-1.004 6.374-.495 2.982.713 5.868.441 8.761-.346 1.423-.387 2.852-.754 4.405-1.161.403.353.93.638 1.203 1.079 1.081 1.724 2.079 3.496 3.064 5.166-.431 1.181-.807 2.22-1.258 3.462.814.197 1.429.387 2.065.482 3.338.516 6.32 1.731 8.946 3.645.547.401 1.039.876 1.58 1.33.225.632.444 1.27.731 2.078 2.64.855 5.232 2.688 8.419.814.185-.78.383-1.642.602-2.579 1.566-1.412 3.016-3.007 5.075-3.998 1.792 1.113 3.515 2.192 5.368 3.346 4.781.136 9.158 2.077 13.61 3.91 1.498-.611 2.968-1.208 4.61-1.873l5.259.76c1.785-2.247 2.544-4.888 3.885-7.25.047-1.018.116-2.036.136-3.048.021-.991-.013-1.989-.027-3.041-1.778-.753-3.249.319-4.856.353-.82-.176-1.71-.353-2.592-.57-2.222-.543-4.425-.91-6.709-.156-1.19.393-2.455.197-3.673-.292-1.463-.591-2.988-1.039-4.486-1.541-1.046-2.518-2.12-4.86-2.373-7.555 1.84-2.213 3.775-4.222 6.579-5.214 3.235-1.147 6.23-2.762 9-4.792.445-.326.999-.502 1.512-.753 2.154.889 4.233 1.819 6.36 2.606 2.195.815 3.645 2.709 5.868 3.768 1.081-.136 2.318-.258 3.536-.462 1.108-.183 2.195-.468 3.228-.692.041-.394.15-.652.068-.795-.704-1.16-1.443-2.294-2.175-3.441-1.292-.598-2.503-1.236-3.768-1.724-3.419-1.324-6.654-2.946-9.226-5.397-2.824-.414-5.423.054-8.125.054-1.579.767-3.214 1.555-4.746 2.295-1.402 1.561-2.059 3.394-2.872 5.125-.787 1.67-1.833 3.088-3.167 4.365-1.169 1.12-2.387 2.056-3.98 2.518-.848.244-1.614.76-2.469 1.181-.096 2.233.759 4.345.185 6.625-1.32 1.718-3.413 2.274-5.479 3.028-1.532-1.046-1.99-2.756-2.886-4.148-.861-1.323-1.614-2.715-2.216-3.733l-.841-7.725c-1.607-1.263-3.392-1.751-5.095-2.301-2.913-.937-5.239-2.654-7.372-4.725-.65-.631-1.334-1.215-1.888-1.717-.855-.251-1.511-.346-1.976.38-.007.217-.083.455-.021.652.616 1.812 1.881 2.993 3.563 3.916 2.996 1.636 5.738 3.673 8.433 5.763.444.347.848.74 1.388 1.216-.479 2.009-1.696 3.679-2.551 5.484-.821 1.738-1.751 3.415-2.647 5.159-2.161.428-4.199 1.175-6.251.924-.697-.516-.595-1.107-.499-1.65.39-2.22.821-4.433 1.231-6.639-1.552-2.498-3.501-4.561-5.669-6.381-1.58-1.323-3.092-2.661-4.179-4.425-.239-.381-.554-.72-.759-.978-.677-.061-1.135-.197-1.566-.136-3.598.537-7.133 1.365-10.355 2.206-1.21.781-1.443 1.826-1.792 2.763-.909 2.471-2.065 4.759-4.028 6.598-.574.537-.971 1.249-1.491 1.853-1.258 1.467-2.585 2.824-4.274 3.856-2.223 1.358-4.35 2.892-6.477 4.324-5.013.285-9.827-.17-14.622-1.833-.574-5.077-1.073-10.107.021-15.171.663-1.914 1.887-3.53 3.194-5.288.991-.041 2.004-.122 3.009-.122 2.394 0 4.787.047 7.181.027.793 0 1.593-.088 2.373-.245.534-.108 1.033-.407 1.641-.658v-3.055c-2.106-2.416-5.218-3.645-7.29-6.238 1.081-1.724 2.551-2.966 3.891-4.317 2.504-.849 4.972-1.684 7.564-2.566 1.396-1.86 2.811-3.754 4.241-5.655 2.462-.658 4.869-1.303 7.489-2.002 2.496-2.254 4.308-5.322 6.941-7.929.54.061 1.231.034 1.84.238 1.723.584 3.454 1.174 5.102 1.928a7.976 7.976 0 0 0 4.315.692c1.922-.217 3.844-.434 5.766-.631.451-.048.902 0 1.518 0 .807.577 1.723 1.235 2.756 1.975 2.77-.957 5.41-2.165 7.94-3.944a505.823 505.823 0 0 1-.273-3.299c.991-2.2 2.01-4.697 3.836-6.944 1.341.726 2.599 1.405 3.789 2.05 2.367-1.589 3.003-2.254 4.302-4.44-1.279-1.147-3.078-1.357-4.548-2.368-1.375-1.915-1.169-4.494-2.332-6.551-1.541-.593-3.075-.79-4.603-.59-2.058 3.393-1.183 7.208-1.381 10.677-1.163 1.718-3.139 1.69-4.692 2.94-1.703 2.463-2.052 5.905-4.035 8.675-1.074-.177-2.079-.3-3.057-.516-1.764-.394-3.515-.849-5.321-1.297-1.313-2.606-2.578-5.118-3.741-7.413-.82-.515-1.313-.115-1.826.062-2.024.712-3.987 1.622-6.251 2.131-2.366-2.464-4.267-5.234-6.292-8.105.479-.577.828-1.168 1.327-1.568 2.661-2.132 5.321-4.256 8.05-6.293.896-.672 1.983-1.092 3.016-1.574.82-.38 1.682-.672 2.701-1.08 2.066-3.387 4.179-6.863 6.306-10.352 3.748-1.744 7.666-2.932 11.544-4.215 3.762-1.242 7.441-2.77 11.257-3.72 2.305 1.066 4.5 2.01 6.627 3.082 2.25 1.133 4.603 1.92 7.045 2.525 4.083 1.005 8.159 2.043 12.228 3.095 1.313.34 2.599.767 3.645 1.073.65.72.52 1.296.356 1.82-.404 1.282-.876 2.545-1.348 3.902-.752.116-1.402.292-2.058.313-1.594.047-3.194 0-4.787.034-.78.013-1.56.122-2.264.176-.315.808.048 1.208.65 1.67 1.531.217 3.214.462 5.101.726 2.463-1.086 5.123-2.11 7.633-3.414 1.805-.937 3.413-2.24 5.102-3.38 1.313-.883 2.633-1.772 3.98-2.682 3.543-.224 7.065-.38 10.58-.7 3.509-.312 6.997-.787 10.519-1.187.656-.869 1.265-1.67 1.928-2.546 3.208-.488 6.518-.054 9.897-.366.28-1.596.581-3.014.772-4.447.178-1.323.014-2.688.465-4.072 1.437-.415 2.784-.184 4.111 0 1.347.183 2.687.434 4.206.685l.013.014Zm-89.489 48.542c-2.749 2.247-5.97 3.435-9.014 4.921-.684.333-1.47.469-2.175.679a972.903 972.903 0 0 0-2.968-2.254c-1.498.109-3.16-.04-4.65.387-2.859.815-5.39.109-7.92-1.031-.725-.326-1.436-.707-2.189-.958-.629-.21-1.306-.264-1.921-.38-2.743 2.111-4.186 5.234-6.798 7.325-2.401.644-4.808 1.29-7.223 1.941-.718.93-1.415 1.82-2.099 2.722-.752.984-1.491 1.982-2.168 2.885-1.341.475-2.517.903-3.7 1.303-1.081.36-2.189.645-3.249 1.046-1.258.475-1.518.828-2.366 2.688 1.922 1.527 3.864 3.075 5.813 4.63.089 1.12.219 2.124.233 3.135.013 1.107.294 2.247-.281 3.456-2.475.712-4.924 1.33-7.618 1.126-2.462-.183-4.979-.346-7.304.136-1.854 1.962-2.716 4.087-2.668 6.598.055 2.6 0 5.2.034 7.8.007.645.206 1.29.315 1.955 3.871 1.147 7.667 1.649 11.51 1.439 1.772-1.195 3.427-2.403 5.171-3.462 2.284-1.385 4.096-3.218 5.656-5.336.403-.549.793-1.113 1.285-1.581 1.272-1.222 1.922-2.79 2.572-4.358.349-.835.533-1.731.902-2.559.315-.699.78-1.331 1.211-2.043 5.143-.584 9.917-2.906 15.313-2.288.725.977 1.429 2.009 2.222 2.96.794.95 1.573 1.975 2.551 2.708 2.674 2.009 4.685 4.596 6.73 7.161.253 2.091-.294 4.067-.609 6.062-.027.177.158.394.294.706h1.512c1.723-1.588 2.291-3.726 3.331-5.586.43-.767 1.032-1.521.772-2.675-2.995-2.98-7.017-4.752-10.498-7.29-1.121-2.064-2.783-3.815-3.727-6.245 2.168-.774 4.186-1.385 6.47-1.793 1.374 1.283 2.824 2.546 4.165 3.917a11.034 11.034 0 0 0 3.953 2.607c1.374.536 2.763 1.045 4.137 1.595 1.259.502 2.497 1.052 3.673 1.548 1.341 2.953.431 5.994 1.101 8.885.547.944 1.094 1.935 1.689 2.899.589.957 1.225 1.887 1.799 2.763 1.135 0 1.901-.367 2.483-1.283.307-2.254-.575-4.616.013-7.067 1.19-.482 2.326-.984 3.481-1.405 2.832-1.038 4.76-2.98 6.039-5.654.972-2.037 2.018-4.032 2.969-5.913 2.14-1.059 4.076-2.016 6.066-2.993 3.071.36 6.066-.883 9.465-.374 3.755 3.89 9.13 5.397 14.082 7.786 1.347 2.091 2.722 4.168 4.021 6.286.26.421.239 1.005.383 1.656-3.953.896-7.755 1.344-11.64 1.826-3.344-2.898-6.996-5.104-11.435-6.143-2.777 2.132-5.943 3.693-9.24 4.942-2.133.808-3.652 2.193-5.04 3.862.308 1.745.869 3.32 1.635 4.908.54.197 1.06.401 1.593.577 1.074.367 2.154.713 3.187 1.059 2.647-.658 5.266-1.011 7.838-.251 2.277.672 4.472.584 6.729 0 1.184-.305 2.401-.57 3.817-.19.239 3.475-.705 6.781-.534 9.945-1.689 3.061-2.79 6.17-4.657 8.953-1.252-.21-2.367-.38-3.475-.584-2.079-.38-4.069-.292-5.936.842-.472.285-1.039.414-1.648.652-.739-.217-1.512-.387-2.243-.672-1.594-.618-3.146-1.331-4.747-1.921a22.693 22.693 0 0 0-3.269-.93c-1.668-.333-3.358-.55-4.65-.754-1.778-.869-2.886-2.091-4.562-2.573-.957.856-1.874 1.677-2.688 2.403-.246 1.283-.451 2.376-.649 3.401-4.672 1.996-8.809.571-12.974-1.323-.24-.876-.472-1.731-.725-2.661-.821-.591-1.683-1.141-2.462-1.792-1.19-.985-2.524-1.439-4.063-1.548-1.921-.143-3.836-.455-5.751-.699-.568-.075-1.136-.184-1.464-1.059.691-1.426 1.471-3.014 2.23-4.582-.759-1.385-1.389-2.702-2.585-3.788-2.545.618-5.075 1.235-6.86 1.67-2.455-.156-4.172-.183-5.861-.387-2.319-.278-4.5.095-6.709.828-4.097 1.358-8.241 2.566-12.235 3.802-2.141-.7-4.07-1.324-5.855-1.908-1.497.916-1.19 2.6-2.072 3.543-2.462 1.745-4.869 3.449-7.208 5.105-.383 2.383-.732 4.596-1.06 6.653-.554.576-.937.991-1.334 1.398-3.071 3.183-6.094 6.415-9.246 9.517-1.744 1.717-2.941 3.706-3.858 5.926a166.421 166.421 0 0 1-2.571 5.912c-.718 1.575-1.108 3.191-.91 4.935.062.564 0 1.134.075 1.697.507 3.652.014 7.23-.916 10.746-.773 2.926-.554 5.817-.178 8.75.287 2.22 1.156 4.08 2.818 5.62 1.853 1.718 3.166 3.836 4.35 6.049 1.278 2.389 2.626 4.751 4.028 7.29 3.734 1.704 7.55 3.442 11.291 5.152.814-.156 1.477-.292 2.148-.414 3.159-.563 6.298-.807 9.383.475.923.387 1.949.53 2.763.74 3.296-1.31 6.374-2.498 9.424-3.747 1.881-.774 3.755-.855 5.656-.156.745.272 1.477.577 2.195.849l4.117 4.066 6.669-.985c.984 1.032 2.017 2.084 3.009 3.164.376.407.663.896 1.046 1.432l-3.577 11.886c.329.55.534.957.794 1.317 2.154 3.055 4.274 6.143 6.497 9.144 1.238 1.663 2.168 3.428 2.742 5.41 1.477 5.098 3.003 10.189 4.5 15.28.253.862.472 1.731.732 2.688-2.182 4.582-4.363 9.171-6.401 13.461-.082 2.023.738 3.421 1.306 4.881 1.32 3.366 2.722 6.706 4.008 10.087.437 1.147.745 2.376.889 3.591.547 4.711.998 9.428 1.491 14.126.355.624.656 1.235 1.026 1.805.923 1.426 1.785 2.906 2.824 4.243 2.633 3.374 4.37 7.1 4.958 11.357.089.624.438 1.221.678 1.86.704.04 1.265.128 1.826.095 3.522-.224 7.044-.448 10.559-.74a9.645 9.645 0 0 0 2.647-.625c2.544-.977 5.061-2.05 7.591-3.061a5.407 5.407 0 0 0 2.394-1.84 393.14 393.14 0 0 1 4.691-6.252 9.083 9.083 0 0 0 1.779-3.971c.458-2.437 1.128-4.826 1.689-7.155 1.819-2.24 4.637-3.068 6.511-5.159.287-4.5-.103-9.014.219-13.474 1.073-.74 1.99-1.398 2.934-2.023 1.983-1.324 4-2.6 5.963-3.964.828-.577 1.744-1.188 2.278-2.003 1.607-2.45 3.323-4.853 4.438-7.67-.403-1.643-.841-3.279-1.21-4.928-.37-1.65-.848-3.306-.971-4.976-.274-3.605-.26-7.223-.534-10.827-.239-3.116.26-6.055 1.354-8.961 1.197-3.17 2.271-6.387 3.331-9.388 3.242-2.885 6.305-5.579 9.328-8.322.835-.76 1.642-1.581 2.278-2.505 3.365-4.84 6.695-9.7 9.978-14.587 2.113-3.15 3.05-6.755 3.912-10.088-.383-1.235-.896-1.934-1.853-2.206-14.103 3.001-14.068 2.58-17.939 2.159-.554-1.514-1.06-3.123-1.738-4.664-.724-1.656-1.6-3.244-2.441-4.921-2.12-1.269-4.261-2.545-6.34-3.794-.643-1.582-1.368-3.008-1.805-4.515-.52-1.792-1.416-3.353-2.613-4.717-1.546-1.758-2.435-3.795-3.119-5.967-1.087-3.462-2.448-6.802-4.151-10.013-1.587-3-3.077-6.061-4.589-9.102-.287-.584-.492-1.216-.704-1.759 3.036-2.722 3.337-2.912 5.505-3.523.308.414.684.835.971 1.31 3.687 6.11 7.386 12.212 11.032 18.342 1.162 1.962 2.469 3.767 4.144 5.349 1.977 1.874 3.823 3.883 5.786 5.777 1.026.991 1.641 2.097 1.867 3.509.438 2.675.978 5.329 1.518 7.983.151.747.253 1.582 1.149 2.03.5-.129 1.04-.36 1.594-.401 2.441-.197 4.609-1.147 6.757-2.226 5.485-2.763 10.922-5.587 16.092-8.94 4.938-3.197 4.945-3.116 7.592-8.282 1.408-2.742 1.046-5.41.506-7.996-1.573-1.209-3.557-.794-4.965-2.111-.089-.951-.178-1.949-.281-3.001-.52-.448-1.019-.882-1.532-1.323-2.653 1.262-4.582 3.496-7.167 4.548-2.305-1.263-6.573-4.657-8.85-7.019-3.905-4.053-6.518-7.196-7.352-8.886 2.469-1.344 4.965-2.62 7.803-3.299 1.779 1.392 3.42 2.79 5.171 4.025 1.751 1.243 3.228 2.885 5.156 3.673 2.504.217 4.877.427 7.332.645 1.087 1.289 2.168 2.566 3.228 3.821 5.601.319 11.045.632 16.496.937.909.048 1.826.054 2.736.082 1.408.034 2.646.427 3.775 1.337 3.789 3.075 7.728 5.973 10.929 9.714.793.923 1.518 1.982 2.851 2.538 1.532-.502 3.119-1.025 4.624-1.513.301.312.567.455.588.631.308 2.464.691 4.921.834 7.399.233 3.869.862 7.616 2.544 11.146.342.713.588 1.466.883 2.206 2.058 5.139 3.98 10.339 6.579 15.253.41.767.588 1.752 1.593 2.037.841.02 1.224-.584 1.601-1.141 1.019-1.5 1.956-3.061 3.016-4.527 1.279-1.765 1.614-3.659 1.279-5.784-.445-2.797-.356-5.614-.212-8.349 2.174-2.824 4.657-5.139 7.352-7.25 2.612-2.043 4.999-4.243 6.558-7.257.876-1.69 2.079-3.21 3.064-4.71 3.775-1.121 7.297-2.383 10.854-3.143 2.393 1.941 7.748 8.037 10.368 11.797-.164 1.67-.363 3.571-.534 5.478-.027.326.062.666.089.944.636.991 1.566 1.337 2.531 1.507 1.716-.353 3.112-1.487 4.828-1.568.267.394.506.645.636.943 1.553 3.639 3.091 7.291 4.617 10.943.485 1.161.656 2.369.622 3.638-.069 2.593-.021 5.193-.021 7.827.76 1.059 1.416 2.118 2.216 3.062 2.606 3.068 4.446 6.475 5.444 10.406.828 3.272 2.585 5.132 6.183 7.331-.281-1.846-1.375-3.197-1.772-4.249-.437-2.166.117-3.904-.574-5.669-3.324-3.265-6.538-6.767-9.267-10.426-1.176-5.091-.657-9.829 1.026-14.771 2.216.801 3.809 2.308 5.457 3.584 1.785 1.385 3.406 3.028 4.863 4.752 1.361 1.608 2.407 3.475 3.727 5.423 1.546-1.649 2.777-3.238 4.056-4.785 1.361-1.657 2.756-3.279 4.103-4.881-.102-2.661-1.087-4.969-1.648-7.446-1.908-2.05-3.823-4.141-5.765-6.205-.705-.747-1.423-1.473-1.737-2.484-.766-2.464-1.84-4.847-2.155-7.44 1.642-2.009 3.557-3.571 5.8-4.82 1.32-.156 2.66-.305 3.693-.427 1.696.583 1.477 2.24 2.489 3.041h1.006c.294-.767.567-1.494.902-2.369 1.573-.537 3.167-1.107 4.781-1.616 1.532-.482 2.934-1.133 4.206-2.158 2.216-1.772 4.555-3.388 6.825-5.098.63-.476 1.19-1.039 1.744-1.528.753-2.925 1.484-5.77 2.223-8.607.376-1.453.431-2.912.014-4.358-.711-2.498-1.443-4.989-2.196-7.596-2.489-2.376-5.047-4.799-7.564-7.25-.458-.441-.752-1.045-1.053-1.466.664-1.649 1.901-2.498 2.996-3.475.143-.129.157-.408.232-.611-.075-.211-.102-.455-.239-.611-.219-.252-.506-.435-.65-.55-2.305-.604-4.343.95-6.689.36-.67-2.084-1.805-4.06-1.819-6.476 1.58-1.589 2.852-3.476 4.842-4.827 1.867.387 3.735.896 5.643 1.141 1.675.217 3.029.909 4.24 2.002 2.106 1.901 4.22 3.795 6.305 5.709 2.353 2.159 4.542 4.453 5.766 7.474.082.203.226.4.383.556.157.157.362.258.684.482.704-.387 1.47-.801 2.339-1.276-.014-1.765.137-3.435-.267-5.003-1.689-2.036-3.474-3.72-5.984-4.527-.698-.224-1.265-.869-1.84-1.276-.472-4.141.937-7.739 2.154-11.371.082-.244.513-.38.718-.516 1.402.313 2.367 1.528 3.967 1.487 1.101-1.378 2.51-2.552 3.31-4.467-.075-4.792-.157-9.768-.219-14.743-.013-1.29-.417-2.43-1.108-3.503-1.477-2.28-2.933-4.582-4.397-6.87-.725-1.133-1.45-2.267-2.106-3.299-.869-.25-1.512-.488-2.175-.617-2.674-.537-5.362-1.012-8.029-1.589-.602-.129-1.136-.584-1.758-.916 1.067-3.374 1.149-6.83 2.585-9.802 4.835-2.485 10.019-2.817 14.896-4.161 1.532.733 2.961 1.411 4.459 2.124 1.409-.04 2.899.177 4.219-.624.972-1.921-.164-4.161 1.088-5.9 3.023-1.004 5.895-.318 8.672.503 1.395-.787 2.66-1.493 4.001-2.253 1.607 1.554 2.373 3.42 3.241 5.342-.205.733-.376 1.5-.629 2.24-.629 1.82-1.333 3.611-1.942 5.43-.246.727-.328 1.507-.499 2.342 1.019 1.019 1.969 1.982 2.934 2.94.971.957 1.962 1.893 2.934 2.844 1.053 1.032 2.099 2.07 3.152 3.109.972.957 1.915 1.941 2.928 2.85.964.87 1.716 2.03 3.111 2.635 1.006-2.234 1.614-4.392 2.155-6.578.157-.631.027-1.337.027-2.145-2.701-3.666-5.444-7.4-8.145-11.072.034-2.063.041-3.957 1.067-5.783 2.674-.258 5.266-.584 7.871-.747 3.625-.224 6.73-1.785 10.088-3.53-1.771-1.262-3.31-2.362-4.931-3.516-.294-1.656-1.423-3.02-1.587-4.833 2.223-.638 4.159.495 6.176.482 2.052-.02 4.069 1.222 6.189.299-.246-.795-.861-.835-1.381-1.032-7.674-2.872-15.586-5.003-23.41-7.406-1.628-.502-3.269-1.08-4.945-1.25-4.076-.406-8.173-.549-12.262-.875-1.867-.15-3.598.068-5.294.917-.882.44-1.949.746-2.92.733-3.755-.055-7.516-.272-11.271-.408-1.149-.04-2.257-.217-3.447-.746-.15-.801-.308-1.663-.451-2.437-.287-.204-.452-.4-.657-.455-4.637-1.303-9.335-2.016-14.164-1.487-.567.061-1.128.184-1.689.218-2.264.129-4.527.237-6.743.353a366.14 366.14 0 0 1-1.847-1.962c-7.721-1.765-10.457-2.186-13.746-2.111-.876.53-1.847 1.113-2.818 1.697-.971.584-1.949 1.154-2.961 1.758-.677-.048-1.423.061-2.018-.177-2.606-1.059-5.115-.902-7.591.32-1.176.583-2.414.671-3.673.461a227.74 227.74 0 0 1-6.367-1.174c-.321-.061-.609-.292-.91-.442a1695.71 1695.71 0 0 1-1.559-2.43c-3.064-.95-8.09-1.86-10.231-1.853-.759.577-1.566 1.188-2.264 1.724-4.062.231-17.993-.767-22.234-1.588-.198-.04-.355-.258-.67-.502-.205-1.073-.438-2.268-.677-3.503-2.53-1.507-5.211-2.41-8.015-2.885-3.584-.611-7.202-1.052-10.799-1.561-.219-.027-.452.04-.705.067-.752.442-1.532.897-2.188 1.284-2.086.17-4.015.366-5.943.461-2.045.102-4.104.136-6.156.156-1.388.014-2.68.258-3.973.822-3.126 1.364-6.265 2.708-9.465 3.89-2.312.854-4.268 2.097-5.82 3.984-.507.61-.999 1.242-1.56 1.799-2.093 2.063-4.404 3.842-7.112 5.315-2.606-2.37-4.138-5.471-6.422-7.807-2.873-.753-3.003-.76-5.239-.122-.103 2.478-.479 5.017-1.012 7.698-3.591.23-7.072.448-10.526.672-.629.821-1.169 1.527-1.812 2.37-7.297.719-14.608 1.757-21.748 1.873-1.019.658-1.826 1.093-2.531 1.663-3.747 3.027-7.926 5.288-12.406 7.032-.738.285-1.504.706-2.257.7-2.482-.028-5.02.196-7.393-.897-1.203-1.663-2.243-3.373-2.811-5.552 3.735-.849 7.387-.163 10.806-.584.746-.563 1.012-1.113.568-1.921-.233-.13-.513-.353-.828-.428-3.857-.984-7.707-1.989-11.578-2.905A48.637 48.637 0 0 1 403.86 31c-1.532-.733-3.085-1.426-4.535-2.09-.841.148-1.552.162-2.174.406-6.244 2.437-12.769 4.127-18.972 6.707-2.134 3.537-4.233 7.012-6.217 10.304-2.742 1.222-5.362 2.037-7.448 3.917-1.99 1.792-4.534 2.96-6.278 5.254 1.382 1.745 2.496 3.55 4.22 4.983 2.229-.828 4.343-1.63 6.477-2.39.499-.176 1.053-.197 1.709-.312 1.464 2.946 2.866 5.777 4.172 8.41 1.888.998 3.686 1.053 5.417 1.31 1.73-2.511 2.12-5.437 3.645-7.772 1.34-.957 3.084-1.08 4.226-2.416.267-1.426-.082-2.865-.3-4.297.3-1.236.554-2.45.902-3.639.37-1.27.24-2.735 1.525-3.876 2.538.055 5.239-.36 7.947.455.725 2.464 1.43 4.833 2.134 7.216.65.36 1.224.726 1.833 1.005 1.341.617 2.715 1.167 4.056 1.798.485.224 1.087.428 1.053 1.148-2.77 3.34-6.012 6.537-8.015 7.894a747.374 747.374 0 0 1-3.174-1.853c-1.176 1.202-1.634 2.6-2.359 4.06.157 1.106.328 2.32.56 3.916l.021-.054Zm71.297 76.17c2.038 2.986 4.405 5.532 7.004 7.833 1.737 1.541 3.419 3.211 5.526 4.236 2.386-1.602 4.63-3.102 6.777-4.548 1.491.638 2.335.778 2.531.421-.548-.605-1.136-1.249-1.772-1.949h-6.326c-3.891-2.294-6.777-5.586-10.388-7.548-1.389.238-2.401.631-3.345 1.548l-.007.007ZM127.002 33.064c.15.163.266.421.444.469 3.051.868 6.114 1.56 9.322 1.812 5.683.455 11.38.394 17.351.638 5.608 2.681 11.442 5.471 17.077 8.16.328.773.102 1.133-.267 1.438-.349.292-.697.584-1.06.856-3.565 2.634-8.054 4.681-13.466 6.143-2.537 2.172-4.938 4.867-7.27 7.406-.103.876.383 1.215.787 1.602 2.072 1.968 4.363 3.598 7.057 4.677 2.004.801 3.953 1.745 5.909 2.654.507.23.972.55 1.416.801.773 2.681-.766 5.247.041 7.976.964.611 2.011.59 3.297-.075.595-1.92 1.224-3.957 1.88-6.082 2.845-1.853 6.149-2.871 9.151-4.636 3.132-5.023 5.8-10.4 9.021-15.368 2.831.55 9.13 3.122 12.83 5.227l1.518 3.346c1.156.584 2.401.326 3.796.292 2.031-1.215 4.165-2.491 6.463-3.87.376.598.759 1.005.916 1.487.739 2.254 1.423 4.528 2.1 6.795.485 1.643 1.21 3.11 2.373 4.44 1.634 1.867 3.064 3.91 4.48 5.75.184 2.375-1.149 4.079-1.635 6.129-.745.305-1.45.686-2.195.89-5.273 1.411-10.553 2.782-15.833 4.174-.328.088-.636.224-1.128.4-2.093 3.503-2.811 7.725-4.849 11.459-6.374 2.41-12.748 4.826-19.396 7.338-2.209 2.26-4.589 4.69-6.955 7.127-.636.652-1.197 1.372-1.874 1.976-4.61 4.079-8.398 8.913-12.358 13.569-2.175 2.553-4.555 4.677-7.564 6.191-2.326 1.168-4.541 2.552-6.785 3.822-1.155 6.795-2.298 13.454-3.44 20.12-.013.102-.109.197-.191.271-.082.075-.185.129-.281.19-.218.041-.485.177-.649.102-1.847-.869-3.68-1.772-5.588-2.695-1.477-3.122-1.06-6.679-2.291-9.938-1.833-.285-3.611-.597-5.396-.835a126.165 126.165 0 0 0-5.765-.638c-.787-.068-1.608-.067-2.373.095-4.111.89-8.207 1.833-12.304 2.777-.438.102-.834.346-1.423.604-2.728 3.862-5.532 7.84-8.227 11.655.014 3.449.78 10.474 1.402 12.803.944.393 1.97.855 3.016 1.262 1.053.414 2.12.781 3.269 1.202 2.879-1.752 4.767-4.562 7.434-6.524 1.245-.509 2.435.156 3.666.258 1.135.095 2.271.17 3.413.231 1.251.075 2.428.414 3.741.849-.212.726-.301 1.276-.52 1.758-.8 1.751-1.58 3.509-2.489 5.206-.992 1.86-1.471 3.774-1.115 6.116.547.428 1.244.971 2.004 1.555 1.682-.496 3.303-.971 4.903-1.446 1.854 1.215 2.756 3.088 4.138 4.785-.212 3.557-1.86 6.904-2.257 10.542.711 1.731 1.395 3.517 2.612 5.01 2.49-.19 4.651-1.52 7.325-1.33 1.559.672 3.324 1.425 5.082 2.179 1.771-.978 2.489-2.75 3.734-4.039 1.176-1.222 2.202-2.587 3.262-3.856.397-.115.718-.292 1.046-.292 4.104-.027 8.207-.061 12.304-.02.889.007 1.799.258 2.653.522 6.511 2.03 13.008 4.121 19.533 6.123a9.813 9.813 0 0 1 3.809 2.152c2.018 1.833 4.104 3.578 6.149 5.383 2.051 1.813 4.301 3.326 6.722 4.616 2.606 1.392 5.178 2.858 7.77 4.27.902.495 1.805.971 2.571 2.131.732 2.627 1.546 5.56 2.318 8.323.288.305.418.529.602.624 5.882 2.967 11.675 6.123 17.939 8.302 3.433 1.195 6.812 2.559 10.218 3.849.424.163.848.333 1.265.516 1.58.719 7.53 4.521 9.26 5.926.595 1.419.322 3.034.506 4.589.185 1.561.349 3.129.541 4.826-1.97 3.265-3.892 6.598-5.964 9.836-1.122 1.758-1.812 3.598-2.209 5.627-1.135 5.872-2.366 11.73-3.584 17.588-.157.774-.444 1.514-.697 2.342-2.148 2.702-4.336 5.444-6.368 8.004a6993.17 6993.17 0 0 1-9.26 3.658c-1.258 1.691-2.544 3.408-3.789 5.078-.123 2.729-.232 5.322-.355 8.064-3.577 5.512-7.325 11.058-9.548 17.011-1.832 1.575-3.843.727-5.526 1.317-.246 1.711.719 3.096.924 4.874-.411.964-.883 2.104-1.382 3.231-.451 1.025-.944 2.03-1.422 3.068-2.599.414-5.061.808-7.475 1.188-.985.679-1.074 1.758-1.341 2.716-.568 2.07-.971 4.181-1.58 6.238-.561 1.894-.69 3.761-.253 5.682.151.658.199 1.337.24 2.016.02.325-.076.658-.137 1.14-1.231.659-2.51 1.351-3.816 2.05v1.921c1.696.801 3.412 1.609 5.266 2.485-1.067 3.095-2.387 5.994-2.387 9.394 1.21 2.24 2.701 4.494 4.609 6.51 3.174 1.718 6.751 2.586 9.944 4.297-.882 1.86-1.901 2.966-5.006 5.478-.301-.027-.677.027-.964-.108a5561.993 5561.993 0 0 1-20.141-9.28c-.513-.237-.992-.536-1.58-.862-.547-1.317-1.142-2.661-1.669-4.019-3.399-8.749-6.777-17.506-10.176-26.256-.753-1.928-.937-3.944-1.122-5.974-.438-4.833-.868-9.673-1.299-14.506-.007-.115-.028-.224-.028-.339.048-4.453-.861-8.764-2.161-12.993-1.026-3.346-.862-6.713-.39-10.073a25.246 25.246 0 0 0 0-7.074c-.451-3.238-.649-6.516-.971-9.775-.273-2.803-.567-5.613-.868-8.6-1.881-1.527-3.796-3.116-5.738-4.664a700.384 700.384 0 0 0-8.31-6.516c-1.381-1.066-2.38-2.383-3.173-3.924-3.071-5.933-6.237-11.818-9.274-17.771-1.046-2.05-2.298-3.883-3.946-5.485-.807-.781-1.518-1.656-2.36-2.586.212-.672.322-1.344.623-1.908.8-1.486 1.682-2.932 2.414-4.195-.397-2.152-2.161-3.21-2.825-4.996.178-.38.336-.801.568-1.174.855-1.337 1.655-2.715 2.626-3.964 3.687-4.739 5.868-10.155 7.4-15.939-.526-2.233-.732-4.609-1.641-6.802-.411-.115-.732-.271-1.053-.278-.445-.014-.89.088-1.457.156-.39.788-.787 1.568-1.176 2.349-.206.102-.404.285-.609.292-1.361.027-2.715.013-4.104.013-3.57-3.231-6.975-6.537-9.65-10.528-1.573-2.349-3.33-4.575-5.067-6.951-3.461-1.439-7.332-1.344-10.922-2.566-2.038-1.575-3.092-4.148-5.485-5.736-1.402.414-2.907.855-4.528 1.33-2.366-.549-4.561-1.792-6.894-2.667-1.278-.482-2.516-1.052-3.782-1.568a12.852 12.852 0 0 1-3.214-1.881c-2.927-2.335-5.909-4.595-8.89-6.903-.076-.733-.24-1.405-.206-2.064.116-2.186-.355-4.249-.964-6.326-1.02-3.489-2.27-6.843-4.452-9.823-.93-1.276-1.621-2.722-2.497-4.045-.485-.734-1.06-1.48-2.134-1.317-.588.617-.355 1.303-.17 1.934.69 2.39 1.443 4.759 2.14 7.141.178.618.253 1.263.376 1.894-1.732.385-4.158.199-7.276-.556-.404-1.066-.74-2.247-.842-3.483-.198-2.389-.889-4.656-1.6-6.917a91.088 91.088 0 0 0-.643-1.928c-1.197-3.428-2.106-6.896-2.038-10.589.034-1.561-.376-3.129-.581-4.698-1.82-2.212-3.611-4.398-5.424-6.611v-16.821c4.247-6.245 8.57-12.606 12.871-18.925-.526-2.662-.97-5.214-1.559-7.739-.267-1.14-.232-2.2-.034-3.34.588-3.333 1.094-6.686 1.58-10.033.164-1.106.17-2.24.253-3.428-2.674-2.966-5.362-5.858-8.433-8.329-4.828-.875-9.622-.624-14.39-.767-.868-.027-1.777.34-2.618.652-4.378 1.609-8.734 3.258-13.104 4.887-1.6.598-3.208 1.168-4.801 1.765-.992.374-2.025.489-3.016.184-3.263-1.019-6.32-2.444-8.98-4.508.055-.373.014-.645.13-.794 3.283-4.046 6.58-8.085 9.923-12.185 5.67-2.063 11.32-4.113 17.016-6.184 1.505-2.715 2.975-5.376 4.37-7.88 2.832-1.263 13.302-4.243 21.83-6.246 2.914.38 5.834.828 8.775 1.127 6.456.652 12.837 1.745 19.17 3.136 2.332.51 4.671.964 7.304 1.5 5.54-.984 11.346-2.043 17.173-3.048 1.908-.325 3.796-.387 5.752.11 4.288 1.092 8.624 2.022 12.953 2.959.875.19 1.806.115 2.708.163l-.095-.116-.007.034ZM49.939 132.79c.157 1.5.417 3.061.472 4.636.11 3.414.65 6.72 1.812 9.958 1.142 3.184 2.257 6.395 2.544 9.816.062.733.486 1.439.698 2.023.793.264 1.327.305 1.901-.36-.116-.625-.198-1.392-.396-2.132a883.513 883.513 0 0 0-2.627-9.469c-.143-.516-.04-.869.643-1.127 1.41.686 2.907 1.494 4.46 2.152 1.552.658 2.591 1.751 3.412 3.177 1.183 2.063 2.448 4.08 3.714 6.096a17.726 17.726 0 0 1 2.072 4.629c1.012 3.577 2.305 7.094 2.277 10.902 2.893 2.484 5.861 4.758 8.898 6.944.547.394 1.183.686 1.812.95 3.14 1.324 6.3 2.621 9.507 3.951 1.832-.543 3.672-1.086 5.526-1.643 2.496 1.786 3.816 4.582 6.23 6.551 2.674.502 5.458 1.079 8.262 1.514 1.326.203 2.366.706 3.152 1.785 1.402 1.921 2.914 3.774 4.227 5.756 2.578 3.917 5.779 7.264 9.26 10.379.164.143.404.204.746.367.3-.054.731-.129 1.053-.183.478-.91.882-1.684 1.19-2.281 2.038-.401 3.809-.747 5.71-1.12-.779-1.181-1.894-1.439-3.05-1.813-1.272.299-2.619.537-3.919.93-1.299.394-2.598.645-4.014.815-1.546-2.505-2.852-4.989-3.734-7.616l2.345-9.47c-.547-1.364-1.237-2.362-2.407-3.061-1.566.02-2.961 1.222-4.992.672-1.115-.645-2.798-1.12-3.919-2.525.102-2.885.396-5.655 1.812-8.221.643-1.167 1.259-2.396 1.491-3.883-1.922-1.391-4.144-.733-6.367-1.065-.834.685-1.737 1.364-2.565 2.124-1.251 1.154-2.434 2.383-3.679 3.544-.479.448-1.04.814-1.601 1.249-3.139-1.249-6.305-2.166-9.096-3.741-.793-3.224-1.497-12.401-1.19-15.327 2.982-4.188 6.005-8.431 9.042-12.701 1.142-.298 2.229-.617 3.33-.869 3.105-.712 6.238-1.296 9.308-2.131 1.806-.496 3.577-.665 5.403-.475 2.715.278 5.43.577 8.139.903 1.347.162 2.681.414 3.871.604.889.774.93 1.69 1.087 2.579.424 2.335.876 4.664 1.341 6.985.061.312.287.598.465.937.608.271 1.217.57 1.846.808.178.068.431-.048.848-.116 1.416-6.055 1.915-12.361 3.29-18.606 2.77-1.588 5.478-3.258 8.296-4.711 2.174-1.12 3.987-2.559 5.546-4.419 2.401-2.871 4.753-5.79 7.332-8.499 4.698-4.928 9.567-9.7 14.334-14.56.91-.93 2.004-1.467 3.187-1.901 3.844-1.419 7.708-2.763 11.517-4.263 1.772-.7 3.728-1.08 5.239-2.382 1.724-3.578 2.66-7.454 4.452-11.065 6.238-1.962 12.577-3.279 18.521-5.078 1.415-1.1 1.374-2.532 1.908-3.855-1.382-1.765-2.647-3.496-4.049-5.126-1.286-1.5-2.182-3.142-2.674-5.05-.369-1.418-.869-2.803-1.293-4.209-.171-.563-.369-1.065-1.21-1.174-1.546.896-3.201 1.86-4.726 2.75-1.901-.163-3.625.176-5.314-.476-.759-1.534-1.511-3.04-2.223-4.48-3.18-1.317-6.216-2.58-9.383-3.896-1.846 2.274-3.057 4.82-4.452 7.25-1.464 2.545-2.962 5.07-4.384 7.5-2.968 1.358-5.759 2.634-8.583 3.93-.451 1.338-.93 2.6-1.306 3.897-.376 1.29-.575 2.634-1.45 3.917-1.908-.014-3.837 0-5.745-.306-.41-.068-.773-.366-1.163-.563-.342-2.933.37-5.757-.075-8.587-2.147-1.405-4.486-2.308-6.75-3.347-1.765-.814-3.433-1.69-4.897-3.014-1.504-1.364-3.187-2.532-4.609-4.134.294-.44.499-.841.786-1.154 2.236-2.41 4.514-4.785 6.73-7.215 1.032-1.127 2.229-1.86 3.713-2.274 2.079-.577 4.138-1.25 6.183-1.942 1.956-.658 3.002-1.568 4.021-3.373-4.09-1.996-8.159-4.012-12.255-5.974-1.245-.59-2.599-.747-3.994-.754-4.104-.033-8.2-.217-12.304-.203-2.188 0-4.329-.265-6.435-.72-7.332-1.595-14.643-3.265-21.947-4.948-1.033-.238-1.983-.245-3.023-.055a1310.496 1310.496 0 0 1-17.146 2.926c-.772.13-1.6.156-2.373.034-1.682-.265-3.344-.658-5.02-.984-5.915-1.147-11.763-2.634-17.795-3.13-2.599-.217-5.177-.753-7.776-1.045-2.257-.258-4.48-.305-6.757.367-5.553 1.65-11.175 3.068-16.92 4.63-1.518 2.7-3.064 5.45-4.623 8.24-5.71 2.084-11.367 4.148-16.783 6.116-3.755 3.876-7.263 8.234-8.508 10.583 2.182 1.385 4.425 2.627 6.942 3.204.526-.19.95-.346 1.374-.51 6.06-2.294 12.12-4.588 18.186-6.876 1.285-.489 2.591-.72 4.007-.61 3.29.257 6.593.386 9.89.556 1.244.061 2.496.095 3.556.136 2.503 1.887 9.014 8.397 10.484 10.46 0 .421.062.876-.007 1.317-.588 3.68-1.238 7.345-1.785 11.03-.349 2.363-.253 4.692.274 7.067.458 2.064 1.272 4.12.978 6.47-4.275 6.265-8.604 12.619-12.906 18.925v14.784c1.738 2.186 3.495 4.399 5.554 6.985l-.007-.013Zm79.06 114.835c.506.624.868 1.201 1.354 1.656 1.935 1.819 3.29 4.012 4.452 6.374 1.559 3.143 3.215 6.245 4.856 9.347 1.799 3.401 3.631 6.782 5.416 10.101 4.801 3.801 9.527 7.528 14.239 11.275.698.557 1.32 1.202 1.826 1.656.267 2.179.52 4.08.725 5.988.431 4.039.835 8.084 1.252 12.13.349 3.387.52 6.815-.082 10.155-.52 2.899-.137 5.607.561 8.356.191.767.465 1.514.636 2.288.376 1.649.875 3.292 1.039 4.962.575 5.96 1.006 11.933 1.525 17.893.329 3.707.896 7.325 2.346 10.855 3.228 7.84 6.149 15.809 9.212 23.717.363.944.807 1.854 1.149 2.634 5.061 2.756 17.686 8.465 20.477 9.252.451-.495.95-1.045 1.579-1.73-2.503-1.562-5.279-2.023-7.7-3.51-2.011-2.457-4.138-4.962-5.198-7.745-.322-3.245.704-5.913 1.429-8.716-1.511-.774-2.899-1.48-4.096-2.091-.718-1.765-.842-3.306-.568-4.942a1650.97 1650.97 0 0 0 3.844-2.131c0-.923.047-1.711-.007-2.491-.151-2.05-.034-4.033.588-6.028.834-2.695 1.436-5.465 2.161-8.194.144-.529.397-1.025.616-1.554 2.756-.55 5.478-.699 8.152-1.398.704-1.473 1.388-2.892 2.051-4.277-.581-1.833-1.162-3.543-1.668-5.274-.144-.503-.096-1.059-.13-1.589 2.264-1.099 4.705.034 6.9-1.045.431-.869.917-1.758 1.327-2.688 1.341-3.007 3.009-5.831 4.781-8.601.608-.957 1.19-1.934 1.86-2.837.916-1.236 1.368-2.573 1.334-4.114-.041-1.697-.007-3.387-.007-4.677 1.108-3.041 3.009-5.016 4.828-7.304 3.003-1.195 6.162-2.444 9.158-3.632 1.511-1.86 2.817-3.577 4.247-5.192 1.251-1.412 1.908-3.055 2.27-4.854 1.204-5.974 2.408-11.954 3.632-17.927.246-1.222.629-2.397 1.34-3.456.759-1.126 1.43-2.308 2.127-3.475 1.389-2.329 2.77-4.664 4.117-6.924-.184-2.627-.075-5.112-.595-7.8-3.59-2.396-7.194-4.907-11.441-6.408-4.179-1.473-8.378-2.959-12.441-4.717-4.691-2.037-9.246-4.372-13.849-6.598-.499-.238-.903-.659-1.402-1.039l-2.558-9.164c-1.005-.625-1.949-1.256-2.927-1.812-1.286-.727-2.612-1.385-3.905-2.098-3.789-2.077-7.557-4.168-10.717-7.182-2.134-2.036-4.418-3.903-6.511-5.736-2.81-.862-5.423-1.643-8.029-2.457-2.715-.849-5.409-1.758-8.124-2.586-2.387-.727-4.767-1.65-7.222-1.983-2.579-.346-5.232-.115-7.852-.081-1.238.014-2.51-.231-3.789.299-2.598 2.6-4.513 5.871-7.235 8.431-.944-.136-1.806-.272-2.668-.381-.061-.006-.15.157-.294.326.274 1.249.582 2.566.855 3.883.39 1.874 1.094 3.767 1.019 5.627-.068 1.738-.937 3.462-1.525 5.173-1.163 3.367-2.772 6.584-4.828 9.653-1.252 1.873-2.49 3.76-3.775 5.709 1.019 1.602 1.969 3.109 2.879 4.541-.472 2.342-2.319 3.815-3.023 6.197l.007-.04ZM686.307 265.741c4.856 1.154 9.37 2.661 13.89 4.148.171.054.267.346.486.645-1.019 2.274-2.072 4.622-3.166 7.073 2.14 1.853 4.513 3.163 6.654 4.589 1.279-.109 1.6-1.053 2.004-1.813 1.751-3.299 3.419-6.639 5.156-9.951.349-.672.862-1.256 1.266-1.833.403.136.67.149.82.292a2405.43 2405.43 0 0 1 7.441 7.087c1.026 1.894 1.067 3.726 1.389 5.498.321 1.772.738 3.523 1.121 5.322 1.361 1.263 2.674 2.512 4.022 3.713 1.347 1.202 2.735 2.362 4.124 3.557 1.094 6.89 1.238 13.787 2.174 20.65-2.646 5.512-5.286 11.017-8.268 16.352-.328.584-.691 1.242-1.217 1.609-2.387 1.67-3.885 4.086-5.574 6.333-1.696 2.261-3.297 4.589-5.006 6.979-.78.067-1.56.196-2.339.196-4.671.021-9.343.129-14.014-.034-2.94-.101-5.874-.597-8.802-.97-1.224-.156-2.434-.469-3.823-.747-.095-.543-.287-1.079-.259-1.602.143-2.254.362-4.5.533-6.747.096-1.243.171-2.485.198-3.727 0-.299-.232-.604-.39-.978-2.154.347-4.267.693-6.545 1.059-.41-.448-.895-.896-1.285-1.418-1.074-1.446-2.107-2.926-3.112-4.338-.869 0-1.539-.075-2.195.014-1.915.264-3.81.753-5.725.848-2.352.116-4.418 1.012-6.497 1.908a180.985 180.985 0 0 0-7.14 3.238c-1.019.488-1.956 1.154-2.906 1.771-1.423.937-2.825 1.901-4.275 2.885-.903 0-1.812.068-2.708-.013a404.838 404.838 0 0 1-9.506-.917c-.657-.074-1.286-.393-2.052-.638-.363-1.778-.753-3.53-1.067-5.295-.246-1.371-.021-2.661.656-3.93 1.129-2.091 2.141-4.242 3.249-6.462l-.472-13.033c1.477-3.422 2.394-6.945 4.302-10.122 3.351-1.364 6.695-2.789 10.088-4.086a21.4 21.4 0 0 0 4.212-2.199c1.608-1.073 3.167-2.22 4.822-3.204 1.409-.842 2.455-1.969 3.337-3.32 1.3-1.989 2.668-3.937 4.029-5.885.513-.74 1.087-1.439 1.696-2.24 2.564-.815 5.136-1.711 7.755-2.437 2.455-.679 4.603-1.84 6.614-3.374 1.976-1.507 4.069-2.878 6.319-4.46l-.014.007Zm25.804 78.301c.547-.726.958-1.255 1.354-1.799 1.676-2.287 3.297-4.609 5.027-6.849 1.033-1.337 2.147-2.64 3.372-3.808.841-.801 1.559-1.636 2.072-2.654 1.997-3.93 3.898-7.922 6.025-11.784.93-1.691 1.245-3.333 1.04-5.193-.294-2.695-.486-5.397-.739-8.092-.267-2.803-.554-5.607-.834-8.478-2.729-2.43-5.431-4.84-7.927-7.066-1.436-3.68-1.149-7.447-2.352-10.339l-5.773-5.749c-3.098 4.154-4.78 9.136-7.728 13.576-3.577-1.853-6.599-4.236-9.828-6.286-.444-.285-.759-.774-1.046-1.079.465-2.525 2.1-4.419 2.565-6.693-1.71-1.005-5.834-2.363-10.573-3.503-1.84 1.303-3.803 2.654-5.725 4.059-1.935 1.419-3.98 2.573-6.326 3.231-2.619.734-5.191 1.65-7.783 2.485-1.026 1.453-2.011 2.837-2.988 4.222-1.307 1.853-2.374 3.937-3.967 5.492-1.683 1.636-3.878 2.749-5.82 4.127-1.772 1.263-3.645 2.315-5.67 3.109-1.477.584-2.995 1.086-4.445 1.731-1.751.78-3.632 1.324-5.253 2.545-.588 1.439-1.073 2.967-1.812 4.352-1.176 2.192-1.327 4.507-1.286 6.91.062 3.503.014 7.005.014 10.617a6911.78 6911.78 0 0 1-3.974 8.064c.336 1.554.643 2.98.951 4.426.472.224.862.536 1.279.584 3.385.38 6.771.712 10.026 1.052.93-.611 1.73-1.059 2.442-1.609 2.633-2.03 5.601-3.448 8.631-4.765 1.668-.727 3.323-1.48 4.978-2.24 1.142-.523 2.298-.917 3.57-1.073 2.483-.305 4.938-.815 7.421-1.086 1.32-.149 2.688-.557 4.117.034 1.21 1.724 2.441 3.475 3.631 5.179 3.017.428 5.67-1.167 8.426-.95.192.319.39.502.411.699.047.557.075 1.12.02 1.677-.13 1.459-.321 2.919-.465 4.378-.178 1.799-.362 3.591-.486 5.397-.034.522.13 1.059.212 1.676 3.297.509 6.422 1.276 9.575 1.419 5.116.238 10.245.061 15.621.061l.02-.007ZM244.756 33.995c1.231-.42 2.195-.733 3.152-1.086.951-.346 1.895-.726 2.798-1.08.738-1.268 1.532-2.361 1.408-3.862-1.737-.936-3.665.13-5.485-.678-.964-1.908.548-3.93-.212-6.28-.766-1.255-2.414-2.097-3.898-3.23-4.644-.482-9.506.685-14.054-1.351 1.067-2.383 1.723-3.238 4.897-6.327 3.098-.923 6.558-.794 10.149-1.561.574-.285 1.436-.625 2.195-1.113 3.987-2.526 8.378-4.02 12.919-5.173 2.421-.618 4.815-1.344 7.243-1.948.862-.21 1.805-.374 2.674-.251 3.372.482 6.723 1.16 10.094 1.622 1.45.197 2.955.17 4.418.047 3.741-.312 7.469-.74 11.196-1.12 1.354-.142 2.715-.264 4.069-.44 1.929-.245 3.803-.259 5.745.237 3.522.889 7.099 1.588 10.676 2.247 2.906.536 5.84.882 8.761 1.323 1.901.292 3.795.604 5.615.896.362 1.012-.377 1.358-.828 1.779a524.329 524.329 0 0 1-6.812 6.17c-1.285 1.147-2.304 2.471-3.2 3.937-2.305 3.768-4.692 7.48-7.168 11.411-1.737.76-3.59 1.595-5.471 2.383-2.736 1.147-5.43 2.349-7.619 4.426-1.032.977-2.352 1.324-3.659 1.724-6.524 2.002-13.042 4.018-19.559 6.028-.219.068-.438.129-.657.197-2.909.932-5.519 2.251-7.831 3.957-3.077 2.267-5.646 5.073-7.707 8.418-.65 1.045-1.033 2.287-2.339 3.115-3.269-.264-6.429-1.52-9.691-2.484-1.573-2.709-2.599-5.594-3.755-8.404-.362-.882-.369-2.03-.198-2.993.615-3.442 1.381-6.856 2.14-10.536h-.006Zm79.531-27.45c-.8-.211-1.21-.354-1.634-.415-3.03-.462-6.073-.842-9.089-1.385-2.907-.522-5.779-1.215-8.666-1.819-1.887-.394-3.747-.692-5.717-.455-3.611.435-7.249.631-10.874.937-.677.054-1.354.163-2.031.251-3.509.462-7.01.706-10.512-.142-1.539-.374-3.132-.55-4.705-.774-2.264-.32-4.507-.482-6.73.4-1.149.455-2.414.625-3.625.93-4.855 1.242-9.615 2.729-13.938 5.356-2.181 1.324-4.575 1.907-7.133 2.043-1.689.088-3.365.414-4.828.604-1.081.89-1.97 1.562-2.339 2.879 1.812.936 3.645.468 5.396.522 1.922.061 3.85.014 5.676.014 1.819 1.636 3.864 2.715 5.3 4.582 0 1.127-.034 2.247.014 3.367.021.522.205 1.038.322 1.588h4.931c.56 0 1.142 0 1.566.876-.465 1.751-1.395 3.557-2.045 5.464-.568 1.643-1.648 2.627-3.269 3.177-1.163.4-2.428.584-3.502 1.405-1.039 3.218-1.422 6.585-2.229 9.958 1.149 2.668 2.304 5.35 3.494 8.12 1.259.352 2.456.685 3.646 1.03 1.183.34 2.325.843 3.72.91 1.108-1.758 2.257-3.434 3.249-5.192.8-1.426 1.826-2.566 3.173-3.47.848-.57 1.696-1.153 2.435-1.852 2.722-2.566 6.066-3.856 9.588-4.895 6.313-1.873 12.584-3.89 18.883-5.817 1.641-.502 3.296-.977 4.568-2.179 1.772-1.67 3.892-2.668 6.108-3.605 2.072-.882 4.322-1.445 6.203-2.878 2.024-3.23 4.103-6.469 6.093-9.754 1.361-2.24 2.879-4.318 4.897-6.042 1.197-1.025 2.455-2.016 3.611-3.747l-.007.007ZM223.044 32.678c-.294.923-.56 1.758-.807 2.525 1.327 1.69 3.7 1.887 4.918 3.801-2.332 2.118-4.774 3.917-7.4 5.662a877.557 877.557 0 0 1-3.365-.978c-.629.434-.513.923-.404 1.337.308 1.188.965 2.302.787 3.55-1.334 1.623-4.213 3.999-6.901 5.682-1.696-.271-3.351-.984-4.972-1.778-.499-.245-.93-.645-1.347-1.012-.253-.217-.417-.53-.643-.787-1.333-1.527-2.674-3.055-4.014-4.589.061-2.057.984-3.754 1.689-5.566 1.491-1.168 2.995-2.349 4.445-3.483.24-1.832-.67-3.197-1.087-4.853-.705-.075-1.395-.312-1.997-.177-2.476.557-4.972.49-7.468.333-2.934-.183-5.868-.414-8.939-.631-.807-2.573-.185-5.118-.363-7.684 3.475-1.888 6.894-3.374 10.403-4.813 2.564.326 4.876 1.738 7.529 1.887 2.49.143 4.972.462 7.79.74 4.076 3.265 8.624 6.448 12.153 10.847l-.007-.013Zm-8.678 15.144c-.78-2.41-1.539-4.765-2.278-7.12-.048-.157.137-.388.26-.7 2.517-.054 4.528 1.9 7.126 2.016.91-.645 1.854-1.27 2.736-1.968.315-.245.486-.672.698-.985-1.095-1.554-3.126-1.717-4.035-3.272.437-.957.848-1.86 1.299-2.837-3.201-3.55-6.846-6.408-10.58-9.11-2.373-.115-4.685-.02-6.908-.4-2.332-.394-4.589-1.242-6.893-1.894-2.777 1.425-5.786 2.192-8.269 3.991-.157 1.473-.499 2.797.363 4.155 2.852.081 5.703.013 8.528.285 2.954.285 5.861-.666 8.925-.17 1.443 2.45 1.894 5.207 2.585 8.01-1.874 1.432-3.666 2.797-5.3 4.046-.54 1.235-1.19 2.206-.992 3.625 1.279 1.636 2.572 3.489 4.425 5.118 1.026.34 2.202.726 3.344 1.106 1.861-1.18 3.495-2.362 4.966-3.89v-.006ZM737 263.352c-.171.373-.315.672-.438.943-3.194.998-3.625 1.046-7.906.917-2.517-2.457-3.755-6.055-6.572-8.533-1.717.136-3.29.72-4.945 1.405-.417.618-.869 1.263-1.3 1.915-.43.644-.848 1.296-1.367 2.09-.609-.237-1.163-.353-1.601-.638-1.716-1.106-3.406-2.267-5.102-3.407-1.066-.72-1.791-1.704-2.359-2.845-.8-1.615-1.662-3.204-2.51-4.833-5.971-3.082-12.174-5.552-18.212-8.424.294-.441.369-.74.54-.794 6.087-2.199 12.187-4.378 18.37-6.591 2.12.909 4.212 1.778 6.271 2.708 4.042 1.826 8.056 3.713 12.098 5.532 1.266.571 2.373 1.29 3.324 2.315 2.079 2.247 4.227 4.44 6.313 6.68.533.577 1.08 1.194 1.422 1.887 1.546 3.143 2.968 6.34 3.98 9.673H737Zm-13.856-9.483c.567.652 1.128 1.201 1.566 1.833 1.292 1.86 2.523 3.76 3.816 5.62.438.632.985 1.188 1.546 1.86 1.32-.658 2.79-.115 4.165-1.004-1.095-2.532-2.148-5.03-3.269-7.488-.274-.597-.746-1.133-1.211-1.615-2.12-2.206-4.281-4.379-6.415-6.585-.725-.747-1.566-1.249-2.524-1.676-4.979-2.227-9.93-4.521-14.888-6.789-.814-.373-1.649-.719-2.326-1.011-2.339.828-4.486 1.561-6.62 2.355-2.065.767-4.295 1.154-6.196 2.451.287.305.41.536.595.624 2.893 1.324 5.793 2.621 8.686 3.944 5.314 2.437 4.527 1.792 6.613 6.266 1.457 3.122 3.98 4.752 6.935 6.326.677-1.031 1.279-1.961 1.942-2.973 2.476-.699 4.979-1.405 7.578-2.145l.007.007Z"/><path d="M686.07 134.901c-3.289.272-6.23.516-9.068.754-1.04.414-1.348 1.303-1.792 2.077-.766 1.358-1.443 2.776-2.449 4.236-.499-.319-.944-.468-1.176-.774-1.498-1.968-3.125-3.856-4.288-5.94.732-3.251 2.093-6.794 3.276-8.587 2.188-.862 4.5-1.547 6.565-2.674 1.662-.903 3.016-2.349 4.582-3.611.185-3.055.254-6.069-.519-9.049-.883-3.38-1.806-6.747-2.695-10.128-.226-.855-.397-1.73-.574-2.505.526-.678 1.114-.522 1.634-.353 3.666 1.202 7.325 2.417 10.977 3.652.185.061.294.319.574.638-.472 1.935-2.523 3.042-3.187 5.234 1.129 1.989 2.285 4.182 3.605 6.272a11.735 11.735 0 0 1 1.47 3.388c.814 3.163 1.587 6.333 2.414 9.639-.335.393-.629.875-1.039 1.208-2.75 2.186-5.519 4.338-8.317 6.517l.007.006Zm-4.862-32.929c.752 2.872 1.32 5.526 2.154 8.092 1.183 3.631 1.019 7.331 1.012 10.983-1.306 1.765-3.166 2.722-4.664 4.086-2.1 1.915-5.054 1.962-7.598 3.591l-2.25 5.655c.622 1.378 1.032 2.668 2.585 3.34.943-1.494 1.839-2.906 2.77-4.372 3.159-.699 6.38-.163 9.465-.672 3.666-2.301 6.374-4.487 7.974-6.449-.697-2.885-1.381-5.844-2.147-8.79-.192-.747-.602-1.46-.999-2.132-1.203-2.043-2.469-4.052-3.666-6.096-.328-.563-.499-1.215-.759-1.866.602-.801 1.183-1.494 1.655-2.254.274-.434.383-.978.561-1.446-2.961-1.527-3.782-1.758-6.1-1.663l.007-.007ZM127.098 33.173c.643-1.514 2.079-2.37 3.05-3.605.342-.427.664-.943-.013-1.656-1.259 0-2.387.876-3.666 1.208-1.204.313-2.366.767-3.618 1.182-2.654-2.01-4.808-4.46-7.249-6.965.704-.407 1.224-.821 1.819-1.025a691.699 691.699 0 0 1 10.942-3.76 6.665 6.665 0 0 1 1.997-.34c2.497-.04 5-.014 7.4-.014 3.83 1.731 7.311 3.998 11.743 4.413.691-.584 1.539-1.304 2.482-2.105 1.163.095 2.401.17 3.625.306 1.108.122 2.284-.19 3.488.59-.089.469-.137.998-.287 1.5-.363 1.175-1.19 2.207-.999 3.788.548.957 1.204 2.118 1.929 3.394-2.264 1.854-4.931 2.872-6.996 4.263-1.738.462-3.064-.027-4.295-.55-2.223-.943-4.425-.814-6.689-.352-3.556.733-7.021.837-10.395.312a833.528 833.528 0 0 1-4.364-.686l.096.116v-.014Zm5.451-1.826c2.325.753 4.568.7 6.812.312a63.02 63.02 0 0 0 4.329-.91c1.265-.312 2.428-.237 3.659.252 1.354.536 2.79.862 4.192 1.276 1.511-.835 2.907-1.582 4.268-2.39.246-.149.362-.522.56-.814-.465-.815-.902-1.595-1.333-2.362l.779-3.401c-.574-.143-.991-.299-1.422-.34-.554-.054-1.108-.013-1.505-.013-.944.828-1.696 1.486-2.496 2.192-.821-.115-1.614-.176-2.38-.353-2.996-.699-5.895-1.67-8.576-3.204-1.081-.617-2.182-1.194-3.502-1.221-3.194-.075-6.353-.034-9.376 1.248-1.457.618-3.009 1.032-4.494 1.589-.608.23-1.162.597-1.921.991.971 1.487 2.017 2.58 3.303 3.326 3.153-1.066 6.162-2.084 9.171-3.095.452-.15.889-.102 1.293.455.055 2.138-1.163 4.174-1.361 6.475v-.013ZM463.924 307.876c-1.614.577-2.995 1.087-4.404 1.548-.301.102-.67.014-1.136.014-2.585-2.329-4.746-5.071-6.497-8.126-.636-1.106-1.032-2.274-.622-3.584 3.406-3.889 5.068-8.478 5.41-13.59.095-1.459.068-2.953 1.012-4.487 2.394-1.894 4.924-4.005 7.571-5.946 2.865-2.104 5.389-4.507 7.468-7.379.39-.543.916-.991 1.546-1.656.287.502.656.855.656 1.208.055 3.503.089 7.012.041 10.515-.007.767-.287 1.555-.526 2.301-2.969 9.259-6.101 18.457-9.671 27.506-.205.522-.506 1.004-.848 1.663v.013Zm-4.206-26.772c-.732 1.629-.889 3.319-.944 5.01-.061 1.955-.629 3.76-1.306 5.573-.998 2.654-2.318 5.118-4.028 7.283 1.47 3.354 3.467 5.94 6.169 7.922.807-.285 1.744-.618 2.708-.957.458-1.168.862-2.213 1.279-3.258 2.9-7.236 5.362-14.622 7.769-22.035.862-2.647 1.279-5.24 1.108-7.969-.021-.394-.219-.774-.321-1.12-.308.014-.452-.027-.527.034-3.987 3.177-7.968 6.361-11.914 9.517h.007ZM589.773 217.091c1.382-1.534 2.654-2.613 4.275-3.265.355.102.697.143.998.285 5.478 2.641 4.056 1.562 7.236 6.266 1.334 1.982 2.763 3.842 4.452 5.539 1.997 2.002 3.817 4.188 5.848 6.157 1.703 1.649 3.59 3.115 5.41 4.643 1.559 1.31 3.132 2.593 4.753 3.93-.24 3.421-.965 6.7-1.423 10.087-1.956.727-3.652-.081-5.512-.434-3.194-3.102-6.463-6.232-9.677-9.429-.623-.618-1.047-1.459-1.457-2.247-.315-.59-.499-1.262-.684-1.907-1.204-4.182-3.474-7.827-5.793-11.445-.479-.74-1.197-1.344-1.86-1.955-1.751-1.609-3.543-3.177-5.294-4.786-.403-.373-.731-.828-1.272-1.452v.013Zm30.311 24.444c-1.409-1.181-2.708-2.28-4.007-3.373-1.649-1.385-3.372-2.695-4.938-4.168-1.402-1.317-2.579-2.872-3.946-4.222-2.996-2.953-5.848-6.015-7.893-9.728-.109-.197-.253-.373-.383-.563-1.142-1.684-2.763-2.587-4.746-3.001l-.657.924c1.389 1.724 3.105 3.041 4.665 4.514 1.073 1.025 2.065 2.084 2.845 3.36 2.12 3.489 4.226 6.985 5.232 10.983.41 1.622 1.333 2.824 2.51 3.937 2.311 2.186 4.568 4.426 6.846 6.632.41.394.786.842 1.258 1.141.684.448 1.443.658 2.339.033.636-1.941 1.039-4.011.875-6.482v.013ZM334.205 79.571c-2.304 1.114-3.426 3.422-5.567 4.582-3.146-.556-5.97-2.09-8.986-3.047-.397-.123-.705-.516-1.183-.89 1.108-2.423 2.161-4.792 3.276-7.134a6.52 6.52 0 0 1 1.155-1.67c3.475-3.611 6.21-7.8 9.281-11.723.547-.706 1.135-1.378 1.778-2.152 3.543.536 6.956 1.236 10.45 2.335.465 2.396-.02 4.698-.396 7.189 1.169 3.265 3.166 6.326 4.568 9.693-.944 1.792-2.619 2.851-3.946 4.216-1.258 1.296-2.626 2.498-4.028 3.815a391.436 391.436 0 0 1-3.009-.584c-.992-.197-2.066-.122-3.112-.998-.075-1.018-.171-2.22-.274-3.645l-.007.013Zm-6.196 2.064c3.256-2.688 5.697-5.675 8.987-8.451.417 3.02-.363 5.702.089 8.254.964.794 1.956.74 3.139.462 1.381-1.304 2.879-2.682 4.329-4.1.465-.455.807-1.025 1.169-1.507-1.402-2.885-2.735-5.62-4.021-8.261.075-1.168.219-2.186.171-3.19-.041-.992.711-1.942.198-2.92-2.058-.903-4.992-1.527-7.29-1.54-.219.196-.506.393-.704.651-3.092 4.039-6.012 8.193-9.404 12.008-1.471 1.657-2.394 3.747-2.825 6.103.602.346 1.053.692 1.56.882 1.477.557 2.968 1.052 4.602 1.623v-.014ZM653.434 189.593c.916-5.465 1.545-10.828 2.797-16.095.041-.163.342-.265.588-.441 2.339 1.378 4.206 3.367 6.381 5.104-.274 3.876-1.464 7.549-2.004 11.411.513.591.998 1.208 1.546 1.765 2.38 2.43 4.794 4.826 7.16 7.27.54.557 1.094 1.195 1.368 1.901 1.238 3.272 2.394 6.584 3.549 9.89.103.292.014.652.014 1.134-2.565 1.466-5.403 2.179-8.371 3.068-.383-.57-.862-1.052-1.067-1.636-.568-1.595-1.046-3.224-1.511-4.853-.472-1.643-1.142-3.157-2.155-4.569-3.111-4.324-5.717-8.953-8.289-13.949h-.006Zm2.345-.347c1.929 3.333 3.611 6.822 5.827 9.938 2.401 3.374 4.309 6.863 5.287 10.875.144.59.636 1.099 1.033 1.744 1.477-.645 3.022-.665 4.212-1.934-.772-2.24-1.559-4.46-2.304-6.693-.547-1.65-1.471-3.008-2.743-4.216-2.305-2.186-4.534-4.446-6.764-6.7-.629-.631-1.155-1.364-1.648-1.955.534-3.855 1.724-7.419 1.915-10.963-.622-1.14-1.422-1.717-2.612-2.097-1.211 3.91-1.218 8.003-2.203 12.001ZM620.25 254.873c.862-1.832 2.216-2.973 7.099-6.041.786.129 1.805.21 2.777.468 5.922 1.562 11.831 3.164 17.747 4.759.212.054.404.204.773.4.472.686 1.033 1.507 1.566 2.288 2.578.767 5.047-.156 7.523-.088s4.965-.034 7.284.054c.191.407.273.502.28.611.014.217.068.482-.034.645-1.341 2.084-2.907 3.998-4.295 5.885-2.325.353-4.261-.529-6.278-.74-2.367-.244-4.685-.848-7.038-1.208a8.813 8.813 0 0 1-4.028-1.717c-1.881-1.426-4.015-1.989-6.306-2.315-4.719-.679-9.417-1.453-14.122-2.227-.992-.163-1.949-.495-2.948-.753v-.021Zm5.382-1.513c1.587.631 3.14.828 4.678 1.072 3.256.516 6.511.985 9.76 1.521 1.238.203 2.366.692 3.44 1.398 1.121.74 2.38 1.297 3.611 1.853.205.095.581-.19.95-.326-.369-.902-.704-1.724-1.06-2.599-6.401-1.718-12.707-3.544-18.903-5.058-1.142.51-2.079.903-2.482 2.139h.006Zm35.646 5.871c-4.323-.142-8.112-.033-12.311.089 5.766 1.758 8.344 2.145 11.216 1.697l1.088-1.792.007.006ZM642.072 245.764c-3.064-.76-6.244-1.554-9.479-2.355-.301-.536-.67-.984-.814-1.5a2572.77 2572.77 0 0 1-4.473-15.959c-.027-.089.055-.204.157-.53.589-.224 1.286-.57 2.032-.767a165.742 165.742 0 0 1 5.95-1.452c1.484-.333 2.763-.971 3.823-2.078a128.632 128.632 0 0 1 4.336-4.31c1.395-1.31 2.858-2.539 4.322-3.829 2.845 1.277 5.204 3.008 7.673 4.616-.294 1.887-.465 3.686-.875 5.431-.739 3.15-.554 6.279-.096 9.422.144.998.287 1.995.438 3.02-.547.679-1.019 1.304-1.539 1.888-.684.76-1.525 1.398-2.086 2.233-2.236 3.299-5.676 4.724-9.369 6.177v-.007Zm-7.954-4.378c2.64.665 5.259 1.324 7.454 1.88 4.029-1.025 6.771-3.088 8.891-6.034.588-.822 1.293-1.555 1.977-2.363-.089-1.384.041-2.79-.308-4.066-.793-2.966-.116-5.81.403-8.682.083-.441.274-.875.295-1.317.034-.767-.021-1.534-.035-2.253-.896-.591-1.634-1.12-2.407-1.575-.759-.448-1.457-1.107-2.619-.91-2.825 2.749-5.745 5.594-8.529 8.295-2.961 1.324-6.162 1.297-9.02 2.872.841 4.846 2.263 9.442 3.891 14.146l.007.007ZM474.101 10.867c.184.584.369.89.369 1.208.027 1.8.014 3.598.014 5.608-2.927 1.69-5.855 3.556-9.623 3.34-1.812-.11-3.638.08-5.458.08-1.381 0-2.687.286-3.973.598-.814 1.086-1.423 2.138-1.621 3.611.814 1.29 1.703 2.682 2.681 4.23-2.168.624-4.165.895-6.278.766-2.64-1.262-5-3.034-7.434-4.683-.253-.17-.356-.55-.63-.991 2.647-3.612 5.711-6.904 8.645-10.447.903-.061 1.799-.177 2.688-.184 2.954-.027 5.957.285 8.856-.108 2.893-.394 5.691-1.5 8.536-2.268.978-.264 1.969-.461 3.221-.753l.007-.007Zm-2.038 3.347c-1.375-.258-2.428.19-3.516.516-3.191.973-6.54 1.46-10.046 1.46-1.368 0-2.736-.021-4.104.013-.786.02-1.566.122-2.428.19-1.997 2.749-4.63 4.955-6.292 7.894 1.744 1.745 3.557 2.994 5.109 3.462.26.082.616-.136 1.074-.25-.294-.904-.554-1.718-.807-2.485.848-2.091 1.696-4.046 3.023-5.838.814-.068 1.6-.17 2.387-.19 2.619-.075 5.238-.19 7.858-.156 2.988.034 5.505-1.086 8.015-2.777l-.267-1.833-.006-.006ZM214.072 3.809c3.871-1.086 7.413-1.772 11.072-1.772 4.439 0 8.816-.679 13.2-1.262.56-.075 1.128-.082 1.75-.123 1.3.59 2.681 1.107 3.796 2.349-2.51 2.118-5.458 3.326-8.056 5.05-3.146.068-6.21.143-9.322.21-2.223 1.963-4.418 3.897-6.682 5.9-1.778-.76-3.194-1.833-4.685-3.15-.533-2.226-1.6-4.487-1.08-7.195l.007-.007Zm24.333-.374c-1.334 0-2.483-.135-3.584.028-4.507.658-9.034 1.025-13.589 1.16-1.6.048-3.146.367-4.514 1.182-.095 3.713.076 4.011 3.085 5.335 1.785-1.65 3.611-3.333 5.451-5.023 3.159-.075 6.23-.143 9.369-.21 1.204-.707 2.701-1.04 3.782-2.465v-.007ZM211.382 11.343a5176.55 5176.55 0 0 1-4.124 3.672c-.383.17-.485.23-.595.258-2.311.523-4.616 1.364-6.948 1.466-2.216.095-4.459-.577-6.737-.916-1.217.516-2.462 1.045-3.734 1.582-2.475-1.23-4.732-2.661-6.791-4.365 1.047-1.942 2.018-2.98 5.184-5.566 2.353.217 4.623 1.378 7.338 1.703 2.907-.807 6.053-1.683 9.172-2.552 2.4 1.534 4.773 2.81 7.235 4.725v-.007Zm-18.342 2.036c.916.184 1.922.367 2.907.59 3.467.781 6.784.13 10.033-1.045.649-.23 1.203-.658.978-1.771-.869-.57-1.902-1.236-2.873-1.867-.704.081-1.286.081-1.819.224-1.867.502-3.734 1.005-5.567 1.602-1.361.441-2.647.448-4.008.014-1.395-.442-2.838-.747-4.281-1.114-.964.74-1.942 1.304-2.38 2.525.875 1.066 2.038 1.718 3.324 2.213l3.686-1.364v-.007Z"/><path d="M168.925 12.334c-2.127 2.165-3.864 3.93-5.423 5.526-1.69.63-3.194.461-4.651.44-2.537-.033-4.972.272-7.311 1.297-1.033.455-2.134.747-3.31 1.154-2.489-1.147-5.321-1.67-7.605-3.61 1.416-2.234 3.091-3.646 5.827-3.612a32.12 32.12 0 0 0 12.002-2.152c1.662-.638 3.283-.74 4.993-.272.869.238 1.799.258 2.681.442.759.156 1.498.414 2.797.787Zm-20.497 5.926c.924-.305 1.792-.55 2.633-.876 2.127-.835 4.295-1.344 6.607-1.215 1.012.055 2.038 0 3.05-.088 1.43-.122 2.544-.74 3.249-2.267-.985-.32-1.826-.59-2.688-.869-.998.306-1.97.59-2.934.896-3.125.991-6.265 1.894-9.609 1.792-1.245-.04-2.455.251-3.645.72.944 1.133.937 1.147 3.337 1.907ZM606.659 22.97c-6.169-.597-12.105-1.934-17.932-3.808-.164-.054-.246-.353-.438-.638a40.67 40.67 0 0 1 3.994-4.134c2.387-.584 4.685.455 7.044.55 2.476.095 4.959.516 7.407.97 2.312.428 4.787 0 7.099 1.338-2.134 2.287-4.719 3.896-7.167 5.722h-.007Zm1.45-4.514c-5.212-.604-9.849-1.67-14.622-1.71-.233.332-.404.59-.623.91.349.216.595.467.883.542 1.75.468 3.494.991 5.266 1.324 1.997.373 4.028.61 6.059.821 1.211.13 2.154-.36 3.037-1.887ZM661.523 227.409c3.023 1.908 4.993 4.059 7.305 6.028-.315.611-.513 1.127-.821 1.561-.923 1.283-1.888 2.532-2.763 3.693v5.607c-1.033 1.174-1.648 2.675-3.139 3.577-.417-.278-.855-.454-1.142-.767-1.929-2.056-4.07-3.923-5.889-6.292 1.772-4.514 4.158-8.716 6.449-13.414v.007Zm.917 3.686c-1.847 3.272-3.344 6.238-4.582 9.347 1.258 1.494 2.428 2.824 3.782 3.802.998-.177 1.279-.747 1.409-1.419l-.493-4.338c.794-1.093 1.566-2.056 2.223-3.095.335-.529.465-1.181.725-1.867l-3.064-2.43ZM697.42 363.817c-3.412-.095-5.43-.577-7.256-1.684.91-2.579 3.734-7.792 5.362-9.822.438 0 1.012-.102 1.539.014 3.406.78 6.941.936 10.32 2.056-1.423 2.105-4.76 5.254-9.972 9.429l.007.007Zm-1.135-8.791c-.677 1.942-2.325 3.449-2.797 5.634.998.577 1.867 1.093 3.262.747 1.505-1.317 3.221-2.79 4.897-4.31.294-.265.41-.727.67-1.202-1.99-.753-3.816-1.208-6.032-.862v-.007ZM549.602 209.32c1.279-2.342 1.997-4.867 3.672-6.978 1.696 2.539 3.235 5.79 4.754 9.992-.595 1.826-1.45 3.638-2.859 5.206-1.758.299-3.351-.488-5.171-.522-.15-.611-.369-1.134-.382-1.657-.042-1.921-.021-3.842-.021-6.041h.007Zm3.994-1.561c-1.306.821-1.683 1.948-1.765 3.156-.082 1.1.007 2.213.062 3.32.007.19.212.366.417.699h1.881c.451-.923.875-1.806 1.347-2.77-.643-1.466-1.258-2.871-1.935-4.405h-.007ZM518.054 8.316c-.608 1.779-1.833 2.73-3.419 3.66-2.962.1-6.101.121-9.349-.015-.028-3.217.991-5.803 1.792-8.654 3.816 1.636 7.44 3.156 10.976 5.01Zm-3.973.944c-1.69-1.263-3.331-1.874-4.918-2.498-1.169 1.188-1.162 1.188-.67 2.668 1.724.19 3.481.285 5.588-.17ZM170.527 19.075c1.799.794 3.338 1.473 5.054 2.233-.273.659-.396 1.202-.697 1.623-1.101 1.561-2.264 3.082-3.297 4.473-3.665 1.494-4.062 1.487-7.694-.15-.554-1.445-1.429-2.89-1.258-4.54 1.265-1.263 2.968-.74 4.227-1.534 1.142-.72 2.339-1.351 3.665-2.112v.007Zm-5.047 5.37c.062.386.034.536.103.597 1.593 1.568 3.296 1.677 4.657.217.609-.651 1.06-1.439 1.546-2.192.095-.15.013-.415.013-.774-.287-.163-.649-.38-1.019-.59-1.778.916-3.46 1.784-5.3 2.742ZM654.277 163.086c-1.046 1.12-1.813 2.425-3.043 3.359-.552-1.663-.912-3.7-1.12-6.265.596-.932 1.332-1.819 2.336-2.489 1.005.089 1.761.759 2.751 1.043-.008.362.034.686-.036.979-.262 1.078-.558 2.147-.884 3.374l-.004-.001Zm-2.416.29c.836-.268 1.209-.842 1.433-1.504.208-.602.324-1.236.458-1.861.024-.107-.062-.235-.125-.451l-1.029-.273c-.383.45-.746.88-1.147 1.349.134.912.263 1.785.406 2.739l.004.001Z"/></g><defs><clipPath id="a"><path fill="#fff" d="M0 0h737v399H0z"/></clipPath></defs></svg>